<?xml version="1.0" encoding="UTF-8" standalone="no"?>
<!DOCTYPE svg PUBLIC "-//W3C//DTD SVG 1.1//EN"
 "http://www.w3.org/Graphics/SVG/1.1/DTD/svg11.dtd">
<!-- Generated by graphviz version 3.0.0 (20220226.1711)
 -->
<!-- Title: G Pages: 1 -->
<svg width="142pt" height="248pt"
 viewBox="0.00 0.00 142.00 248.00" xmlns="http://www.w3.org/2000/svg" xmlns:xlink="http://www.w3.org/1999/xlink">
<g id="graph0" class="graph" transform="scale(1 1) rotate(0) translate(4 244)">
<title>G</title>
<polygon fill="#eeeeee" stroke="transparent" points="-4,4 -4,-244 138,-244 138,4 -4,4"/>
<g id="clust1" class="cluster">
<title>cluster_inputs</title>
<polygon fill="#eeeeee" stroke="black" stroke-dasharray="5,2" points="13,-156 13,-232 122,-232 122,-156 13,-156"/>
<text text-anchor="middle" x="67.5" y="-163.8" font-family="Times,serif" font-size="14.00">Workflow Inputs</text>
</g>
<g id="clust2" class="cluster">
<title>cluster_outputs</title>
<polygon fill="#eeeeee" stroke="black" stroke-dasharray="5,2" points="8,-8 8,-84 126,-84 126,-8 8,-8"/>
<text text-anchor="middle" x="67" y="-15.8" font-family="Times,serif" font-size="14.00">Workflow Outputs</text>
</g>
<!-- wf_input_file -->
<g id="node1" class="node">
<title>wf_input_file</title>
<polygon fill="#94ddf4" stroke="black" points="22,-187.5 22,-223.5 112,-223.5 112,-187.5 22,-187.5"/>
<text text-anchor="middle" x="67" y="-201.8" font-family="Times,serif" font-size="14.00">wf_input_file</text>
</g>
<!-- wf_step -->
<g id="node2" class="node">
<title>wf_step</title>
<ellipse fill="none" stroke="black" cx="67" cy="-130" rx="38.19" ry="18"/>
<text text-anchor="middle" x="67" y="-126.3" font-family="Times,serif" font-size="14.00">wf_step</text>
</g>
<!-- wf_input_file&#45;&gt;wf_step -->
<g id="edge1" class="edge">
<title>wf_input_file&#45;&gt;wf_step</title>
<path fill="none" stroke="black" d="M67,-187.45C67,-178.8 67,-168.07 67,-158.29"/>
<polygon fill="black" stroke="black" points="70.5,-158.21 67,-148.21 63.5,-158.21 70.5,-158.21"/>
</g>
<!-- wf_output_file -->
<g id="node3" class="node">
<title>wf_output_file</title>
<polygon fill="#94ddf4" stroke="black" points="18.5,-39.5 18.5,-75.5 115.5,-75.5 115.5,-39.5 18.5,-39.5"/>
<text text-anchor="middle" x="67" y="-53.8" font-family="Times,serif" font-size="14.00">wf_output_file</text>
</g>
<!-- wf_step&#45;&gt;wf_output_file -->
<g id="edge2" class="edge">
<title>wf_step&#45;&gt;wf_output_file</title>
<path fill="none" stroke="black" d="M67,-111.93C67,-104.17 67,-94.78 67,-86.06"/>
<polygon fill="black" stroke="black" points="70.5,-85.9 67,-75.9 63.5,-85.9 70.5,-85.9"/>
</g>
</g>
</svg>
