<?xml version="1.0" encoding="UTF-8" standalone="no"?>
<!DOCTYPE svg PUBLIC "-//W3C//DTD SVG 1.1//EN"
 "http://www.w3.org/Graphics/SVG/1.1/DTD/svg11.dtd">
<!-- Generated by graphviz version 3.0.0 (20220226.1711)
 -->
<!-- Title: G Pages: 1 -->
<svg width="475pt" height="136pt"
 viewBox="0.00 0.00 475.00 136.00" xmlns="http://www.w3.org/2000/svg" xmlns:xlink="http://www.w3.org/1999/xlink">
<g id="graph0" class="graph" transform="scale(1 1) rotate(0) translate(4 132)">
<title>G</title>
<polygon fill="#eeeeee" stroke="transparent" points="-4,4 -4,-132 471,-132 471,4 -4,4"/>
<g id="clust1" class="cluster">
<title>cluster_inputs</title>
<polygon fill="#eeeeee" stroke="black" stroke-dasharray="5,2" points="8,-44 8,-120 459,-120 459,-44 8,-44"/>
<text text-anchor="middle" x="404.5" y="-51.8" font-family="Times,serif" font-size="14.00">Workflow Inputs</text>
</g>
<!-- wf_input_file -->
<g id="node1" class="node">
<title>wf_input_file</title>
<polygon fill="#94ddf4" stroke="black" points="16,-75.5 16,-111.5 106,-111.5 106,-75.5 16,-75.5"/>
<text text-anchor="middle" x="61" y="-89.8" font-family="Times,serif" font-size="14.00">wf_input_file</text>
</g>
<!-- date_step -->
<g id="node5" class="node">
<title>date_step</title>
<ellipse fill="none" stroke="black" cx="60" cy="-18" rx="44.39" ry="18"/>
<text text-anchor="middle" x="60" y="-14.3" font-family="Times,serif" font-size="14.00">date_step</text>
</g>
<!-- wf_input_file&#45;&gt;date_step -->
<g id="edge1" class="edge">
<title>wf_input_file&#45;&gt;date_step</title>
<path fill="none" stroke="black" d="M60.77,-75.45C60.65,-66.8 60.5,-56.07 60.37,-46.29"/>
<polygon fill="black" stroke="black" points="63.87,-46.16 60.23,-36.21 56.87,-46.26 63.87,-46.16"/>
</g>
<!-- echo_step -->
<g id="node6" class="node">
<title>echo_step</title>
<ellipse fill="none" stroke="black" cx="168" cy="-18" rx="46.29" ry="18"/>
<text text-anchor="middle" x="168" y="-14.3" font-family="Times,serif" font-size="14.00">echo_step</text>
</g>
<!-- wf_input_file&#45;&gt;echo_step -->
<g id="edge2" class="edge">
<title>wf_input_file&#45;&gt;echo_step</title>
<path fill="none" stroke="black" d="M77.45,-75.4C87.64,-65.43 101.35,-53.06 115,-44 119.23,-41.19 123.84,-38.52 128.5,-36.05"/>
<polygon fill="black" stroke="black" points="130.09,-39.16 137.46,-31.55 126.95,-32.91 130.09,-39.16"/>
</g>
<!-- wf_input_string -->
<g id="node2" class="node">
<title>wf_input_string</title>
<polygon fill="#94ddf4" stroke="black" points="229.5,-75.5 229.5,-111.5 332.5,-111.5 332.5,-75.5 229.5,-75.5"/>
<text text-anchor="middle" x="281" y="-89.8" font-family="Times,serif" font-size="14.00">wf_input_string</text>
</g>
<!-- echo2_step -->
<g id="node7" class="node">
<title>echo2_step</title>
<ellipse fill="none" stroke="black" cx="282" cy="-18" rx="50.09" ry="18"/>
<text text-anchor="middle" x="282" y="-14.3" font-family="Times,serif" font-size="14.00">echo2_step</text>
</g>
<!-- wf_input_string&#45;&gt;echo2_step -->
<g id="edge3" class="edge">
<title>wf_input_string&#45;&gt;echo2_step</title>
<path fill="none" stroke="black" d="M281.23,-75.45C281.35,-66.8 281.5,-56.07 281.63,-46.29"/>
<polygon fill="black" stroke="black" points="285.13,-46.26 281.77,-36.21 278.13,-46.16 285.13,-46.26"/>
</g>
<!-- wf_input_dir -->
<g id="node3" class="node">
<title>wf_input_dir</title>
<polygon fill="#94ddf4" stroke="black" points="124.5,-75.5 124.5,-111.5 211.5,-111.5 211.5,-75.5 124.5,-75.5"/>
<text text-anchor="middle" x="168" y="-89.8" font-family="Times,serif" font-size="14.00">wf_input_dir</text>
</g>
<!-- wf_input_dir&#45;&gt;echo_step -->
<g id="edge4" class="edge">
<title>wf_input_dir&#45;&gt;echo_step</title>
<path fill="none" stroke="black" d="M168,-75.45C168,-66.8 168,-56.07 168,-46.29"/>
<polygon fill="black" stroke="black" points="171.5,-46.21 168,-36.21 164.5,-46.21 171.5,-46.21"/>
</g>
<!-- wf_input_array -->
<g id="node4" class="node">
<title>wf_input_array</title>
<polygon fill="#94ddf4" stroke="black" points="351,-75.5 351,-111.5 451,-111.5 451,-75.5 351,-75.5"/>
<text text-anchor="middle" x="401" y="-89.8" font-family="Times,serif" font-size="14.00">wf_input_array</text>
</g>
<!-- date2_step -->
<g id="node8" class="node">
<title>date2_step</title>
<ellipse fill="none" stroke="black" cx="401" cy="-18" rx="48.19" ry="18"/>
<text text-anchor="middle" x="401" y="-14.3" font-family="Times,serif" font-size="14.00">date2_step</text>
</g>
<!-- wf_input_array&#45;&gt;date2_step -->
<g id="edge5" class="edge">
<title>wf_input_array&#45;&gt;date2_step</title>
<path fill="none" stroke="black" d="M401,-75.45C401,-66.8 401,-56.07 401,-46.29"/>
<polygon fill="black" stroke="black" points="404.5,-46.21 401,-36.21 397.5,-46.21 404.5,-46.21"/>
</g>
</g>
</svg>
