<?xml version="1.0" encoding="UTF-8" standalone="no"?>
<!DOCTYPE svg PUBLIC "-//W3C//DTD SVG 1.1//EN"
 "http://www.w3.org/Graphics/SVG/1.1/DTD/svg11.dtd">
<!-- Generated by graphviz version 3.0.0 (20220226.1711)
 -->
<!-- Title: G Pages: 1 -->
<svg width="143pt" height="248pt"
 viewBox="0.00 0.00 143.00 248.00" xmlns="http://www.w3.org/2000/svg" xmlns:xlink="http://www.w3.org/1999/xlink">
<g id="graph0" class="graph" transform="scale(1 1) rotate(0) translate(4 244)">
<title>G</title>
<polygon fill="#eeeeee" stroke="transparent" points="-4,4 -4,-244 139,-244 139,4 -4,4"/>
<g id="clust1" class="cluster">
<title>cluster_inputs</title>
<polygon fill="#eeeeee" stroke="black" stroke-dasharray="5,2" points="8,-156 8,-232 122,-232 122,-156 8,-156"/>
<text text-anchor="middle" x="67.5" y="-163.8" font-family="Times,serif" font-size="14.00">Workflow Inputs</text>
</g>
<g id="clust2" class="cluster">
<title>cluster_outputs</title>
<polygon fill="#eeeeee" stroke="black" stroke-dasharray="5,2" points="9,-8 9,-84 127,-84 127,-8 9,-8"/>
<text text-anchor="middle" x="68" y="-15.8" font-family="Times,serif" font-size="14.00">Workflow Outputs</text>
</g>
<!-- wf_input_fasta -->
<g id="node1" class="node">
<title>wf_input_fasta</title>
<polygon fill="#94ddf4" stroke="black" points="16,-187.5 16,-223.5 114,-223.5 114,-187.5 16,-187.5"/>
<text text-anchor="middle" x="65" y="-201.8" font-family="Times,serif" font-size="14.00">wf_input_fasta</text>
</g>
<!-- step1 -->
<g id="node2" class="node">
<title>step1</title>
<ellipse fill="none" stroke="black" cx="65" cy="-130" rx="29.5" ry="18"/>
<text text-anchor="middle" x="65" y="-126.3" font-family="Times,serif" font-size="14.00">step1</text>
</g>
<!-- wf_input_fasta&#45;&gt;step1 -->
<g id="edge1" class="edge">
<title>wf_input_fasta&#45;&gt;step1</title>
<path fill="none" stroke="black" d="M65,-187.45C65,-178.8 65,-168.07 65,-158.29"/>
<polygon fill="black" stroke="black" points="68.5,-158.21 65,-148.21 61.5,-158.21 68.5,-158.21"/>
</g>
<!-- wf_output_dir -->
<g id="node3" class="node">
<title>wf_output_dir</title>
<polygon fill="#94ddf4" stroke="black" points="18,-39.5 18,-75.5 112,-75.5 112,-39.5 18,-39.5"/>
<text text-anchor="middle" x="65" y="-53.8" font-family="Times,serif" font-size="14.00">wf_output_dir</text>
</g>
<!-- step1&#45;&gt;wf_output_dir -->
<g id="edge2" class="edge">
<title>step1&#45;&gt;wf_output_dir</title>
<path fill="none" stroke="black" d="M65,-111.93C65,-104.17 65,-94.78 65,-86.06"/>
<polygon fill="black" stroke="black" points="68.5,-85.9 65,-75.9 61.5,-85.9 68.5,-85.9"/>
</g>
</g>
</svg>
